<svg xmlns="http://www.w3.org/2000/svg" width="241" height="35" viewBox="0 0 241 35"><path fill="#fff" d="M14.81 15.47c.24-.32.36-.76.36-1.29 0-.54-.1-.96-.3-1.28a1.87 1.87 0 0 0-.75-.7 3.1 3.1 0 0 0-1.01-.29c-.37-.04-.7-.07-1.01-.07H9.7v4.84h1.98c.33 0 .71-.03 1.11-.09.41-.05.79-.17 1.14-.36.35-.18.64-.43.88-.76zm8.88 3.14a8.75 8.75 0 0 1-3.89 3.24l7.61 12.17H15.83l-5.75-10.73h-.29v10.73H0V4h12.92c1.47 0 2.93.15 4.39.45 1.45.29 2.75.82 3.9 1.56a8.64 8.64 0 0 1 2.77 3.01 9.54 9.54 0 0 1 1.06 4.73c0 1.84-.45 3.46-1.35 4.86zM35.98 20.03c.09-.62.43-1.23 1.02-1.82.59-.6 1.43-.89 2.5-.89.99 0 1.77.25 2.35.76.58.51.87 1.16.87 1.95zm8.22-8.12a12.14 12.14 0 0 0-4.79-.91c-1.72 0-3.34.28-4.85.85a11.3 11.3 0 0 0-6.59 6.17A12.26 12.26 0 0 0 27 23c0 1.98.35 3.72 1.06 5.22.7 1.49 1.64 2.74 2.82 3.75 1.17 1 2.52 1.76 4.04 2.27 1.53.51 3.1.76 4.71.76 2.48 0 4.66-.47 6.54-1.4 1.88-.93 3.31-2.2 4.3-3.82l-6.95-3.52a4.36 4.36 0 0 1-3.64 1.57 4.95 4.95 0 0 1-2.52-.67c-.35-.23-.65-.5-.89-.81a1.85 1.85 0 0 1-.4-1.06h15l.06-.95.02-1.13c0-1.75-.28-3.38-.85-4.87a10.88 10.88 0 0 0-6.1-6.43zM54 34.06h10V2H54zM77.62 1.48A5.45 5.45 0 0 0 76.03.4a4.91 4.91 0 0 0-3.89 0c-.63.27-1.17.63-1.64 1.08-.46.46-.83.99-1.1 1.59a4.83 4.83 0 0 0 2.74 6.51 5.08 5.08 0 0 0 5.48-1.04A4.7 4.7 0 0 0 79.13 5c0-.67-.14-1.32-.41-1.93a5.15 5.15 0 0 0-1.1-1.59M69 33.3h9.79V11H69zM95.6 25.67c0 .93-.28 1.7-.85 2.29-.56.59-1.31.89-2.24.89a2.85 2.85 0 0 1-1.49-.42 1.86 1.86 0 0 1-.55-.53 1.41 1.41 0 0 1-.21-.79c0-.85.44-1.42 1.32-1.74.87-.31 2.03-.46 3.47-.46h.55zm3.09-13.78a13.43 13.43 0 0 0-5.25-.89c-1.98 0-3.9.35-5.76 1.06a14.06 14.06 0 0 0-4.83 3.01l4.87 4.83c.62-.5 1.33-.95 2.14-1.33.8-.38 1.66-.57 2.56-.57.77 0 1.38.16 1.85.48.46.33.7.83.7 1.51v.08c-1.47 0-2.98.1-4.52.3a15 15 0 0 0-4.17 1.12 8.37 8.37 0 0 0-3.07 2.29 5.77 5.77 0 0 0-1.21 3.8 6.52 6.52 0 0 0 2.56 5.55c.75.57 1.58.98 2.5 1.23a9.1 9.1 0 0 0 5.74-.17 4.62 4.62 0 0 0 2.42-1.82h.08v1.78h8.86V22.41c0-1.56-.16-3.03-.49-4.41a9.43 9.43 0 0 0-1.69-3.65 7.98 7.98 0 0 0-3.29-2.46zM127.89 23.52a5.56 5.56 0 0 1-4.24 1.87 5.68 5.68 0 0 1-5.49-3.99 8.06 8.06 0 0 1-.44-2.71c0-.96.15-1.85.44-2.65a5.57 5.57 0 0 1 3.12-3.33 6 6 0 0 1 4.72 0c.72.31 1.35.74 1.89 1.29a5.8 5.8 0 0 1 1.25 2.04c.29.8.44 1.69.44 2.65 0 .99-.15 1.89-.44 2.71-.3.82-.72 1.53-1.25 2.12zm9.02 2.55c.37-.31.74-.74 1.13-1.3a12.32 12.32 0 0 0 2.01-6.63c0-2.21-.41-4.24-1.23-6.11a14.2 14.2 0 0 0-3.41-4.79 15.9 15.9 0 0 0-5.19-3.12A18.65 18.65 0 0 0 123.65 3a19 19 0 0 0-6.61 1.12 15.64 15.64 0 0 0-5.27 3.18 14.82 14.82 0 0 0-3.5 4.92 15.32 15.32 0 0 0-1.27 6.3c0 2.49.4 4.68 1.19 6.59a13.44 13.44 0 0 0 3.3 4.82 13.87 13.87 0 0 0 5.09 2.94c1.97.67 4.15 1 6.52 1h18.56v-7.93l-4.75.3zM158.15 22.79c0 .99-.21 1.74-.62 2.27-.41.52-.95.78-1.6.78-.72 0-1.25-.22-1.61-.68-.35-.45-.53-1.24-.53-2.37V11H144v13.57c0 1.1.12 2.21.36 3.33a8.42 8.42 0 0 0 1.27 3.01 6.82 6.82 0 0 0 2.44 2.16c1.01.55 2.31.83 3.9.83 1.44 0 2.71-.31 3.83-.91a7.06 7.06 0 0 0 2.52-2.15h.09v2.46h9.53V11h-9.79zM182.71 26.73a3.44 3.44 0 0 1-2.63-1.1 3.84 3.84 0 0 1-1.01-2.67c0-.99.33-1.85.99-2.59a3.37 3.37 0 0 1 2.61-1.1c1.07 0 1.95.37 2.65 1.1.69.74 1.03 1.6 1.03 2.59a3.8 3.8 0 0 1-1.01 2.67 3.44 3.44 0 0 1-2.63 1.1zm4.81-14.95a15.07 15.07 0 0 0-4.85-.78c-1.67 0-3.27.26-4.81.78-1.54.53-2.89 1.3-4.05 2.32a11.05 11.05 0 0 0-2.77 3.75 11.87 11.87 0 0 0-1.04 5.07c0 1.92.35 3.63 1.04 5.13a11.4 11.4 0 0 0 6.82 6.14c1.54.54 3.14.81 4.81.81 1.69 0 3.31-.27 4.85-.81a12.12 12.12 0 0 0 4.07-2.35c1.17-1.03 2.1-2.3 2.79-3.79a12 12 0 0 0 1.04-5.13c0-1.9-.34-3.59-1.04-5.07a10.97 10.97 0 0 0-2.79-3.75 12.22 12.22 0 0 0-4.07-2.32zM209.58 6h-9.49v5H197v7h3.14v7.97c0 2.72.72 4.72 2.16 6 1.44 1.29 3.65 1.93 6.65 1.93 1.01 0 1.98-.07 2.9-.21a8.95 8.95 0 0 0 2.14-.55v-6.7a8.14 8.14 0 0 1-1.78.25c-.82 0-1.46-.19-1.93-.57-.46-.38-.7-1.11-.7-2.18V18h4.83v-7h-4.83zM224.98 20.03c.09-.62.43-1.23 1.02-1.82.59-.6 1.43-.89 2.5-.89.99 0 1.77.25 2.35.76.58.51.87 1.16.87 1.95zm11.93-5.57a10.88 10.88 0 0 0-3.71-2.55 12.14 12.14 0 0 0-4.79-.91c-1.72 0-3.34.28-4.85.85a11.3 11.3 0 0 0-6.59 6.17A12.26 12.26 0 0 0 216 23c0 1.98.35 3.72 1.06 5.22.7 1.49 1.64 2.74 2.82 3.75 1.17 1 2.52 1.76 4.04 2.27 1.53.51 3.1.76 4.71.76 2.48 0 4.66-.47 6.54-1.4 1.88-.93 3.31-2.2 4.3-3.82l-6.95-3.52a4.36 4.36 0 0 1-3.64 1.57 4.95 4.95 0 0 1-2.52-.67c-.35-.23-.65-.5-.89-.81a1.85 1.85 0 0 1-.4-1.06h15l.06-.95.02-1.13c0-1.75-.28-3.38-.85-4.87-.56-1.5-1.36-2.8-2.39-3.88z"/></svg>